<mxfile host="app.diagrams.net" modified="2024-06-25T02:59:25.965Z" agent="Mozilla/5.0 (X11; Linux x86_64) AppleWebKit/537.36 (KHTML, like Gecko) Chrome/124.0.0.0 Safari/537.36" etag="x9XdCn2xcJuKMxqTZLjU" version="24.6.2" type="github">
  <diagram name="Page-1" id="xf3crfLfRD9FHdEv5IPZ">
    <mxGraphModel dx="918" dy="490" grid="1" gridSize="10" guides="1" tooltips="1" connect="1" arrows="1" fold="1" page="1" pageScale="1" pageWidth="827" pageHeight="1169" math="0" shadow="0">
      <root>
        <mxCell id="0" />
        <mxCell id="1" parent="0" />
        <mxCell id="lVgcGV953Nc5fKTQOM8T-1" value="" style="rounded=0;whiteSpace=wrap;html=1;" vertex="1" parent="1">
          <mxGeometry x="350" y="230" width="120" height="60" as="geometry" />
        </mxCell>
        <mxCell id="lVgcGV953Nc5fKTQOM8T-2" value="" style="rounded=0;whiteSpace=wrap;html=1;" vertex="1" parent="1">
          <mxGeometry x="350" y="230" width="120" height="60" as="geometry" />
        </mxCell>
      </root>
    </mxGraphModel>
  </diagram>
</mxfile>
